<svg width="181" height="35" viewBox="0 0 181 35" fill="none" xmlns="http://www.w3.org/2000/svg">
<path d="M17.8896 0.28418H18.0078C27.2372 0.28418 34.7311 7.982 34.7207 17.5078L34.7158 17.9531C34.4864 27.2621 27.077 34.7207 17.9971 34.7207C15.4991 34.7207 13.132 34.1555 11 33.1387V28.084C13.0467 29.5316 15.4731 30.3086 18.0078 30.3086C23.2678 30.3086 27.7544 26.9439 29.5723 22.207L29.6357 22.04L29.5117 21.9121L25.4854 17.752L25.041 17.292L25.0059 17.9307C24.9145 19.5966 24.2839 21.1581 23.1904 22.3916L22.9658 22.6338C21.6417 23.9915 19.8808 24.7421 18.0137 24.7422C16.146 24.7422 14.38 23.991 13.0615 22.6338H13.0605C11.7363 21.2649 11.005 19.454 11.0049 17.5195C11.0049 15.5841 11.732 13.7729 13.0615 12.4043L13.0605 12.4033C14.3847 11.0458 16.1466 10.2959 18.0137 10.2959C19.8808 10.296 21.6465 11.0466 22.9648 12.4033V12.4043L29.8281 19.4902L30.2275 19.9033L30.3047 19.334C30.386 18.7372 30.4297 18.1341 30.4297 17.5195C30.4297 10.5087 24.9299 4.79967 18.1084 4.74121V4.72949H18.0078C14.7902 4.72953 11.7609 5.96958 9.43652 8.24805L9.21387 8.47168C6.87306 10.8813 5.58115 14.1013 5.58105 17.5078V29.0127C2.9083 25.9621 1.27939 21.9206 1.2793 17.4922C1.2793 8.01738 8.71519 0.344986 17.8857 0.280273L17.8896 0.28418Z" fill="#1161FE" stroke="#1161FE" stroke-width="0.558365"/>
<path fill-rule="evenodd" clip-rule="evenodd" d="M180.5 5.02586C180.5 4.69642 180.232 4.42841 179.903 4.42841H113.602C113.273 4.42841 113.005 4.69642 113.005 5.02586V28.9741C113.005 29.3035 113.273 29.5716 113.602 29.5716H179.903C180.232 29.5716 180.5 29.3035 180.5 28.9741V5.02586ZM147.199 8.66081H138.12V24.3229C136.685 23.2397 135.663 21.4809 134.932 19.3479C135.714 18.8186 136.581 18.1281 137.449 17.4367C137.653 17.2747 137.856 17.1126 138.059 16.9525L136.696 15.5454C136.127 16.2155 135.267 17.0586 134.452 17.7733C134.117 16.45 133.843 15.0206 133.653 13.5744C134.764 13.3232 135.836 13.0049 136.719 12.6922L135.205 11.1567C133.737 11.7877 131.258 12.3739 129.075 12.7313V23.2118C129.075 24.0326 128.634 24.429 128.276 24.6189C128.55 24.9986 128.907 25.797 129.03 26.2158C129.058 26.1935 129.091 26.1655 129.125 26.1376L129.153 26.1153C129.309 25.998 129.532 25.864 129.94 25.6574L130.069 25.596C130.75 25.2554 131.9 24.7417 133.938 23.8651C133.81 23.4854 133.625 22.8154 133.558 22.2905L130.766 23.4016V14.1216C130.995 14.0758 131.224 14.0367 131.457 13.997C131.65 13.964 131.845 13.9307 132.045 13.8927C132.698 19.2083 133.999 23.7199 136.853 26.0706C137.137 25.6016 137.668 24.9595 138.109 24.563V25.6295H147.16V25.4397C147.517 25.797 147.875 26.2381 148.081 26.5731C149.952 24.7473 150.979 22.6255 151.566 20.5651C152.403 22.9382 153.626 24.7417 155.474 26.4056C155.725 25.8808 156.273 25.2722 156.753 24.9148C154.212 22.8377 152.995 20.42 152.219 16.4109C152.252 15.9782 152.257 15.5414 152.261 15.1468C152.262 15.0831 152.263 15.0205 152.263 14.9592V13.2394H150.477V14.7526C150.477 17.483 150.164 21.5758 147.16 24.7473V23.8427H140.019V22.2458C140.415 22.5418 140.901 22.9605 141.13 23.1895C142.096 22.056 142.978 20.688 143.799 19.1357C144.491 20.4144 145.061 21.5925 145.435 22.5585L147.115 21.654C146.613 20.3921 145.77 18.8398 144.742 17.1815C145.563 15.417 146.233 13.4851 146.803 11.5141L145.061 11.1567C144.681 12.6252 144.201 14.0546 143.631 15.417C142.81 14.1775 141.951 12.9602 141.13 11.8658L140.019 12.4354V10.4197H147.199V8.66081ZM125.523 9.28618C129.052 8.82832 133.128 8.04661 135.479 7.20906V7.20348L137.054 8.77807C134.368 9.67703 130.672 10.3303 127.288 10.7714V14.7023C127.277 18.1642 126.914 23.1783 124.725 26.5229C124.39 26.2102 123.614 25.7468 123.173 25.5793C125.311 22.3463 125.523 17.7901 125.523 14.5348V9.28618ZM156.412 14.5627H175.028V16.5561H165.262C163.961 18.9738 162.364 21.2854 160.812 23.1727L170.366 22.4803C169.59 21.2854 168.752 20.1073 168.015 19.0799L169.802 18.1363C171.544 20.4646 173.604 23.4686 174.632 25.4006L172.744 26.5341C172.448 25.9031 172.007 25.1493 171.505 24.3285C169.976 24.4563 168.633 24.5676 167.453 24.6654C160.122 25.273 159.025 25.3639 158.193 25.6909C158.07 25.2498 157.735 24.1387 157.44 23.5077C157.964 23.3849 158.422 22.86 159.076 22.0392C159.667 21.3636 161.264 19.0743 162.543 16.5561H156.412V14.5627ZM119.158 24.7417C120.124 23.1671 121.492 20.5205 122.542 18.1698L123.82 19.4931C122.894 21.654 121.699 24.1108 120.649 26.0874L119.158 24.7417ZM142.788 17.3322C141.923 15.886 140.957 14.4343 140.035 13.1333V21.6149C141.068 20.4423 141.99 18.9682 142.788 17.3322ZM118.7 14.5013L119.644 13.0496L119.649 13.0551C120.822 13.58 122.419 14.4622 123.24 15.0932L122.251 16.7292C121.492 16.0536 119.895 15.1099 118.7 14.5013ZM149.209 7.12612C148.79 10.2527 147.908 13.2786 146.457 15.149C146.898 15.3779 147.735 15.886 148.076 16.1596C148.83 15.0876 149.438 13.7028 149.963 12.1283H154.687C154.391 13.4739 154.017 14.8587 153.676 15.8246L155.212 16.2881C155.82 14.8587 156.429 12.614 156.87 10.6598L155.569 10.2801L155.256 10.3415H150.466C150.694 9.39785 150.907 8.40955 151.052 7.39891L149.209 7.12612ZM119.75 8.87299L120.716 7.44357V7.44916C121.911 8.03544 123.547 9.00141 124.368 9.69378L123.34 11.2684C122.564 10.576 120.945 9.54303 119.75 8.87299ZM158.718 8.72223H172.873V10.7156H158.718V8.72223ZM51.2944 18.9292V26.4727H51.2888H48.2234V7.52736H56.37C58.1232 7.52736 59.48 8.04105 60.4404 9.07403C61.4008 10.107 61.881 11.4917 61.881 13.2283C61.881 14.9648 61.4008 16.3495 60.4404 17.3825C59.48 18.4155 58.1232 18.9292 56.37 18.9292H51.2944ZM51.2944 16.2378H56.1801C56.9618 16.2378 57.5649 16.0368 58.0004 15.6292C58.4359 15.2216 58.6537 14.6353 58.6537 13.876V12.575C58.6537 11.81 58.4359 11.2293 58.0004 10.8217C57.5649 10.4141 56.9562 10.2131 56.1801 10.2131H51.2944V16.2378ZM68.3134 18.9292V26.4727H68.3078H65.2424V7.52736H73.3889C75.1422 7.52736 76.499 8.04105 77.4594 9.07403C78.4198 10.107 78.9 11.4917 78.9 13.2283C78.9 14.9648 78.4198 16.3495 77.4594 17.3825C76.499 18.4155 75.1422 18.9292 73.3889 18.9292H68.3134ZM68.3134 16.2378H73.1991C73.9808 16.2378 74.5838 16.0368 75.0193 15.6292C75.4549 15.2216 75.6726 14.6353 75.6726 13.876V12.575C75.6726 11.81 75.4549 11.2293 75.0193 10.8217C74.5838 10.4141 73.9752 10.2131 73.1991 10.2131H68.3134V16.2378ZM89.7043 23.9768V26.4727H81.4517V23.9768H84.0313V10.0288H81.4517V7.53294H89.7043V10.0288H87.0968V23.9768H89.7043ZM104.239 25.8585C103.239 26.2661 102.117 26.4727 100.888 26.4727C99.66 26.4727 98.5432 26.2661 97.5382 25.8585C96.5331 25.4509 95.6732 24.8478 94.9585 24.0494C94.2438 23.2509 93.691 22.2626 93.3002 21.0845C92.9093 19.9007 92.7139 18.5439 92.7139 17.0028C92.7139 15.4617 92.9093 14.0993 93.3002 12.9212C93.691 11.743 94.2438 10.7547 94.9585 9.95624C95.6732 9.16337 96.5331 8.56033 97.5382 8.14714C98.5376 7.73954 99.66 7.53294 100.888 7.53294C102.117 7.53294 103.233 7.73395 104.239 8.14714C105.244 8.55475 106.104 9.15778 106.818 9.95624C107.533 10.7547 108.086 11.743 108.477 12.9212C108.867 14.1049 109.063 15.4617 109.063 17.0028C109.063 18.5439 108.867 19.9063 108.477 21.0845C108.086 22.2626 107.533 23.2509 106.818 24.0494C106.104 24.8422 105.238 25.4509 104.239 25.8585ZM98.8113 23.3737C99.431 23.6138 100.123 23.7367 100.888 23.7367C101.637 23.7367 102.323 23.6138 102.949 23.3737C103.574 23.1336 104.105 22.7819 104.546 22.324C104.981 21.8662 105.327 21.3134 105.567 20.6545C105.808 19.9956 105.93 19.253 105.93 18.4266V15.579C105.93 14.747 105.813 14.0044 105.567 13.3511C105.327 12.6978 104.987 12.1394 104.546 11.6816C104.11 11.2237 103.574 10.872 102.949 10.6319C102.323 10.3918 101.659 10.2689 100.888 10.2689C100.118 10.2689 99.431 10.3918 98.8113 10.6319C98.1915 10.872 97.6666 11.2237 97.2255 11.6816C96.79 12.1394 96.4494 12.6978 96.2037 13.3511C95.9636 14.01 95.8408 14.7526 95.8408 15.579V18.4266C95.8408 19.2586 95.9636 20.0012 96.2037 20.6545C96.4438 21.3078 96.7844 21.8662 97.2255 22.324C97.6666 22.7819 98.1915 23.1336 98.8113 23.3737Z" fill="#111111"/>
</svg>
